<svg width="32" height="32" viewBox="0 0 32 32" fill="none" xmlns="http://www.w3.org/2000/svg">
<g id="times 1">
<path id="Vector" d="M17.88 16L23.6133 10.28C23.8644 10.0289 24.0054 9.68836 24.0054 9.3333C24.0054 8.97823 23.8644 8.6377 23.6133 8.38663C23.3622 8.13556 23.0217 7.99451 22.6666 7.99451C22.3116 7.99451 21.9711 8.13556 21.72 8.38663L16 14.12L10.28 8.38663C10.0289 8.13556 9.68838 7.99451 9.33331 7.99451C8.97824 7.99451 8.63772 8.13556 8.38665 8.38663C8.13557 8.6377 7.99452 8.97823 7.99452 9.3333C7.99452 9.68836 8.13557 10.0289 8.38665 10.28L14.12 16L8.38665 21.72C8.26168 21.8439 8.16248 21.9914 8.09479 22.1539C8.0271 22.3163 7.99225 22.4906 7.99225 22.6666C7.99225 22.8426 8.0271 23.0169 8.09479 23.1794C8.16248 23.3419 8.26168 23.4893 8.38665 23.6133C8.5106 23.7383 8.65806 23.8375 8.82054 23.9052C8.98302 23.9728 9.1573 24.0077 9.33331 24.0077C9.50933 24.0077 9.6836 23.9728 9.84608 23.9052C10.0086 23.8375 10.156 23.7383 10.28 23.6133L16 17.88L21.72 23.6133C21.8439 23.7383 21.9914 23.8375 22.1539 23.9052C22.3164 23.9728 22.4906 24.0077 22.6666 24.0077C22.8427 24.0077 23.0169 23.9728 23.1794 23.9052C23.3419 23.8375 23.4894 23.7383 23.6133 23.6133C23.7383 23.4893 23.8375 23.3419 23.9052 23.1794C23.9729 23.0169 24.0077 22.8426 24.0077 22.6666C24.0077 22.4906 23.9729 22.3163 23.9052 22.1539C23.8375 21.9914 23.7383 21.8439 23.6133 21.72L17.88 16Z" fill="black"/>
</g>
</svg>
