<svg width="148" height="62" viewBox="0 0 148 62" fill="none" xmlns="http://www.w3.org/2000/svg">
<g id="Group">
<path id="Vector" d="M74.1736 0.777014C75.1451 0.44116 76.2062 0.721535 77.0965 1.15963C77.7185 1.55926 78.3406 1.96313 79.0372 2.22459C79.0905 2.32449 79.2012 2.52218 79.2545 2.61996C79.2268 2.68586 79.1735 2.8219 79.1459 2.88779C79.6422 4.01439 79.9596 5.34931 79.4782 6.53308C79.1501 6.93271 78.5792 6.99457 78.1169 7.14931C78.1148 7.72112 78.2064 8.28675 78.2554 8.8543C79.2439 9.01373 80.0807 8.32714 81.0585 8.39516C81.1906 7.84887 81.295 7.29364 81.4701 6.75819C81.6725 7.11318 81.6808 7.52152 81.6831 7.92114C81.9387 7.99341 82.1986 8.05931 82.4602 8.12286C82.4628 8.22086 82.4647 8.41642 82.4647 8.5142C86.751 8.53971 91.0349 8.49485 95.3214 8.53758C95.3107 8.68383 95.2899 8.97738 95.2813 9.12426C95.3921 9.12426 95.6179 9.12639 95.7304 9.12639C95.7261 8.34861 95.7304 7.56828 95.7283 6.7905C95.8369 6.78604 96.05 6.77966 96.1565 6.77753C96.159 7.38972 96.1609 8.00191 96.1673 8.61432C96.2609 8.7291 96.4483 8.95846 96.5425 9.07325C96.6128 8.99013 96.7532 8.82688 96.8233 8.74377C97.1492 9.04795 96.9639 9.46458 96.9494 9.83827C98.1488 9.8253 99.3605 9.90608 100.556 9.8083C100.646 9.7424 100.824 9.61274 100.914 9.54706C101.078 9.61061 101.244 9.6746 101.408 9.74049C101.947 9.72731 102.488 9.72561 103.029 9.72348C103.018 10.0019 103.01 10.2802 102.999 10.5589C102.303 10.548 101.604 10.5334 100.918 10.6522C100.475 10.2719 99.8803 10.3926 99.3456 10.3782C98.5233 10.4165 97.675 10.2719 96.8787 10.5331C96.4053 10.6649 95.8859 10.6333 95.4684 10.3652C95.3678 10.6139 95.5216 11.1708 95.1015 11.1494C93.4484 11.1708 91.7974 11.1347 90.1463 11.1602C89.9205 11.2793 89.6926 11.3919 89.4672 11.5022C89.2286 12.2122 88.5447 12.686 87.9627 13.1196C87.8903 14.2101 88.3228 15.2283 88.4911 16.2867C88.1651 16.38 87.837 16.4761 87.5154 16.5823C87.0531 17.6707 87.3364 19.1563 86.267 19.9156C85.4468 20.3915 84.904 21.4267 83.7979 21.2633C84.3603 21.7309 83.6445 21.5842 83.7191 21.2101C81.7187 21.0337 80.0336 19.8625 78.2952 18.9699C78.2143 19.4586 78.0866 19.9392 77.9543 20.4175C78.6148 20.5429 79.1601 21.0275 79.2773 21.7035C79.4882 23.1768 79.0664 24.6394 79.0728 26.1166C79.1196 26.9838 78.7468 27.7786 78.2824 28.4865C77.8755 28.9456 77.2343 28.4735 76.7464 28.4057C76.6355 28.6204 76.527 28.8353 76.4205 29.0519C76.559 29.6299 76.6186 30.2314 76.8125 30.7968C77.9011 31.9978 78.8917 33.299 79.6522 34.7338C80.4351 36.3587 81.1328 38.0231 81.7423 39.7204C81.8018 40.05 82.1128 40.1684 82.3859 40.2879C82.4221 40.628 82.4583 40.9677 82.4924 41.3123C82.5989 41.4674 82.7076 41.6224 82.8184 41.7797C82.8844 43.8758 82.6266 45.963 82.3003 48.0313C82.0983 48.9646 82.6454 49.8763 82.4238 50.8159C82.4494 51.2969 82.1175 51.6602 81.9615 52.0853C81.9317 53.078 81.8827 54.0832 81.9918 55.0742C82.0681 55.8012 82.6842 56.2686 83.1017 56.8109C83.5576 57.2936 83.9389 57.9417 84.6292 58.1137C85.2789 58.3071 85.8988 58.5877 86.4715 58.9556C86.6462 59.3869 86.6142 59.8444 86.5311 60.2925C85.2827 60.522 84.0088 60.4075 82.7476 60.4268C81.7758 60.4776 80.9091 59.9568 79.965 59.8482C79.0511 59.8253 77.9369 60.2778 77.2343 59.4616C77.5321 58.329 77.556 57.1127 78.1009 56.056C78.2756 54.8595 77.9437 53.6455 78.0136 52.4382C77.9096 52.351 77.7004 52.1767 77.596 52.0891C77.671 51.3007 77.2809 50.599 77.1508 49.8447C77.066 48.7429 76.9654 47.6423 76.8376 46.5454C76.7375 46.0119 77.0144 45.5232 77.3915 45.1682C77.4256 44.5518 77.5091 43.9415 77.5683 43.3295C77.4767 42.9318 77.1593 42.6365 76.9548 42.2964C76.2709 42.5838 75.3485 42.4476 74.9416 41.7797C73.9768 40.3472 73.0136 38.9145 72.0379 37.4901C71.6545 37.4648 71.2497 37.505 70.8918 37.3519C70.479 36.9291 70.2634 36.3658 69.9996 35.8514C69.6223 36.2744 69.6498 36.9226 69.2029 37.3075C68.257 38.2133 68.0056 39.5439 67.5114 40.7043C67.1326 41.4566 67.3456 42.3642 66.9234 43.0978C66.6976 43.493 66.1309 43.5716 65.9818 44.0227C65.7858 44.509 65.5557 45.013 65.0977 45.3089C64.6013 45.6337 64.4695 46.2506 64.2481 46.7603C64.0457 47.2303 64.3461 47.7232 64.2758 48.206C63.9605 49.7388 62.9827 51.0204 62.5715 52.5213C62.3841 53.1972 62.1154 53.9582 61.3272 54.1026C60.4303 55.7011 59.9363 57.6569 60.4433 59.4567C60.7543 60.0221 60.7373 60.6577 60.6414 61.2805C59.2164 61.3912 57.7548 61.5823 56.3554 61.185C56.0273 60.5365 56.0742 59.7734 56.1423 59.0726C56.5746 57.2292 57.1479 55.4183 57.4992 53.5563C57.0603 53.1673 57.1628 52.5723 57.1711 52.0513C57.1564 51.0799 57.8187 50.3019 58.2789 49.5048C58.4516 48.6864 58.3707 47.807 58.7944 47.056C59.2931 46.1165 59.7147 45.1006 60.484 44.3415C60.6308 43.672 61.1254 43.1663 61.3253 42.5215C61.5383 41.9519 61.1655 41.3737 61.2405 40.7915C61.4235 39.0246 61.7454 37.2754 62.0245 35.5218C61.4963 35.0817 61.6666 34.3826 61.4983 33.7893C61.5813 33.5555 61.6857 33.3325 61.8114 33.1155C61.6793 32.9943 61.5496 32.8711 61.4173 32.7501C61.5451 32.1266 61.5089 31.0107 62.4676 31.2133C62.5272 29.1492 61.8093 27.1511 62.05 25.0848C62.1778 25.2334 62.3033 25.3845 62.4313 25.5354L62.3632 24.8361C62.7637 24.6235 63.1898 24.4598 63.6371 24.3769C62.9085 24.2815 62.1991 24.0965 61.4851 23.9305C61.3125 23.4776 61.4088 22.9952 61.4723 22.5319C61.7492 20.9674 61.8515 19.3816 61.909 17.7959C62.7164 17.5157 63.6069 17.7536 64.3951 17.3793C64.1505 15.396 64.0888 13.3258 64.7956 11.4232C65.3644 9.8032 66.4511 8.24084 68.1466 7.67137C68.9477 7.48028 69.9553 7.26537 70.5216 8.04124C70.6771 7.89882 70.8326 7.75215 70.9881 7.60973C69.6952 5.04746 71.2397 1.30418 74.1736 0.777014ZM84.5205 11.89C84.1797 12.0983 83.8452 12.3366 84.2035 12.7149C84.0288 12.8189 83.8537 12.919 83.6769 13.0144C83.3999 13.227 82.7779 13.3479 82.8503 13.7778C83.1615 14.2763 83.4295 14.8003 83.6515 15.3441C84.3309 14.7874 84.872 14.0388 85.2384 13.2463C85.3151 13.1677 85.4709 13.0104 85.5473 12.9337C85.5133 12.5702 85.4323 12.215 85.2896 11.8793C85.0339 11.8838 84.7762 11.8878 84.5205 11.89Z" fill="white"/>
<path id="Vector_2" d="M90.771 30.9188C91.7465 29.6904 93.323 29.01 94.8864 29.0355C99.6435 29.04 104.403 29.0334 109.16 29.0376C111.48 29.0865 113.742 30.8957 114.011 33.2469C107.426 33.225 100.843 33.266 94.2603 33.225C94.2539 37.621 94.2454 42.019 94.2603 46.4172C99.3135 46.4089 104.366 46.4002 109.42 46.4215C109.4 44.8464 109.426 43.2712 109.405 41.6963C106.906 41.7106 104.407 41.7155 101.908 41.6963C99.9038 41.6196 98.4126 39.8917 97.9612 38.0508C103.334 38.0317 108.705 38.0296 114.077 38.053C114.054 40.7462 114.09 43.4417 114.058 46.1349C113.994 48.403 112.038 50.3992 109.797 50.6267C104.614 50.6267 99.4285 50.6245 94.2454 50.6245C92.6966 50.6135 91.3268 49.6378 90.4534 48.42C89.8569 47.5589 89.7225 46.4899 89.6375 45.4758C89.6289 41.8622 89.6417 38.2464 89.633 34.6328C89.6526 33.3229 89.8848 31.9394 90.771 30.9188ZM122.2 29.1841C122.735 29.0395 123.293 29.0291 123.845 29.0355C128.242 29.0487 132.641 29.0208 137.038 29.0461C139.531 29.1524 141.72 31.2997 141.817 33.7948C141.821 37.8274 141.821 41.8617 141.817 45.8967C141.772 48.3686 139.578 50.6728 137.062 50.6305C132.226 50.6092 127.39 50.6454 122.554 50.6135C120.142 50.3457 118.291 48.048 118.274 45.6692C118.24 41.9916 118.278 38.31 118.255 34.6328C118.236 33.5487 118.432 32.4349 119.007 31.4996C119.682 30.3239 120.892 29.501 122.2 29.1841ZM122.958 33.1085C122.967 37.6446 122.939 42.1827 122.971 46.7189C127.694 46.7318 132.42 46.7167 137.143 46.7248C137.157 42.1848 137.145 37.6442 137.148 33.1015C132.419 33.0998 127.688 33.0915 122.958 33.1085ZM0.936104 34.1883C1.03644 31.7289 3.10054 29.4181 5.61222 29.3225C10.3052 29.318 15.0005 29.318 19.6938 29.3246C22.2289 29.2993 24.3405 31.5844 24.5319 34.0353C24.1931 34.0631 23.8544 34.0839 23.5157 34.0884C17.9278 34.0822 12.3399 34.0905 6.75387 34.0839C6.75153 38.0462 6.73065 42.0082 6.76453 45.9706C12.6956 45.9619 18.6244 45.9577 24.5553 45.973C24.387 48.5127 22.2436 50.7665 19.66 50.8662C15.4078 50.926 11.1556 50.8684 6.90321 50.8941C5.84443 50.9302 4.75369 50.7982 3.79951 50.3157C2.15488 49.4763 0.991493 47.7649 0.9344 45.9071C0.929713 42.0001 0.923322 38.0951 0.936104 34.1883ZM29.0482 32.2625C29.83 30.5596 31.6195 29.295 33.5243 29.3182C38.211 29.3227 42.8999 29.3182 47.589 29.3203C50.0366 29.3352 52.1925 31.4734 52.3653 33.8865C46.1828 33.9736 39.9963 33.899 33.8121 33.9226C33.7842 35.164 33.7972 36.4054 33.795 37.6487C38.3923 37.6633 42.9917 37.6529 47.589 37.6529C48.9523 37.7061 50.3841 38.142 51.3127 39.194C52.3563 40.1253 52.7975 41.5431 52.8316 42.9078C52.8548 44.2703 52.8548 45.6394 52.6333 46.9888C52.1263 49.1742 50.0321 50.8025 47.7976 50.8726C43.3283 50.9149 38.8563 50.8769 34.3871 50.8939C33.3327 50.9153 32.242 50.7642 31.3066 50.2519C29.8238 49.4801 28.7587 47.9279 28.6119 46.2618C34.9049 46.292 41.2001 46.281 47.4932 46.2663C47.5081 44.9437 47.4996 43.6218 47.4996 42.2998C42.8426 42.2679 38.1836 42.2954 33.5243 42.2866C30.8466 42.3081 28.4777 39.8528 28.5497 37.1895C28.6434 35.5485 28.2644 33.7866 29.0482 32.2625ZM143.271 29.7606C143.864 29.7457 144.462 29.7223 145.052 29.8116C144.777 29.8817 144.498 29.9179 144.217 29.9221C144.181 30.5621 144.177 31.202 144.185 31.8414C144.123 31.8414 144.002 31.8414 143.942 31.8435C143.947 31.1867 143.953 30.5298 143.945 29.8751C143.778 29.8883 143.448 29.9179 143.284 29.9304L143.271 29.7606ZM145.384 29.7368C145.51 29.7433 145.766 29.7561 145.894 29.7625C146.075 30.3383 146.288 30.9037 146.552 31.45C146.799 30.8995 146.961 30.3126 147.234 29.7773C147.353 29.7603 147.592 29.7242 147.711 29.7072C147.645 30.4894 147.915 31.3546 147.492 32.0667C147.415 31.3737 147.447 30.6763 147.402 29.9812C147.078 30.6297 146.925 31.3586 146.501 31.9583C146.177 31.342 146.039 30.6402 145.651 30.0584C145.626 30.6791 145.638 31.3019 145.63 31.9243L145.402 31.8985C145.402 31.1784 145.391 30.4576 145.384 29.7368Z" fill="white"/>
</g>
</svg>
