<svg width="30" height="26" viewBox="0 0 30 26" fill="none" xmlns="http://www.w3.org/2000/svg">
<path fill-rule="evenodd" clip-rule="evenodd" d="M27.0529 9.54384C29.7545 7.14805 30.5288 3.24577 28.9466 0C20.5002 8.6913 17.6876 11.6264 17.6876 11.6264C15.4788 13.931 14.6828 16.1304 16.744 19.7006C23.6166 12.9294 27.0529 9.54384 27.0529 9.54384Z" fill="white"/>
<path fill-rule="evenodd" clip-rule="evenodd" d="M18.8365 23.2767L20.3878 26.0001C23.0045 24.6316 24.1752 21.6318 23.3168 18.8556L26.4359 15.7635C27.5845 14.7448 27.9138 13.0857 27.2411 11.7056L19.4227 19.7719C17.727 21.5689 18.576 22.8256 18.8365 23.2767Z" fill="white"/>
<path fill-rule="evenodd" clip-rule="evenodd" d="M2.70734 9.54384C0.00588705 7.14805 -0.768387 3.24577 0.813715 0C9.26003 8.6913 12.0727 11.6264 12.0727 11.6264C14.2815 13.931 15.0775 16.1304 13.0163 19.7006C6.14365 12.9294 2.70734 9.54384 2.70734 9.54384Z" fill="white"/>
<path fill-rule="evenodd" clip-rule="evenodd" d="M10.9239 23.2767L9.37261 26.0001C6.75575 24.6316 5.58507 21.6318 6.44347 18.8556L3.32435 15.7635C2.17579 14.7448 1.84649 13.0857 2.51916 11.7056L10.3376 19.7719C12.0332 21.5689 11.1843 22.8256 10.9239 23.2767Z" fill="white"/>
<path fill-rule="evenodd" clip-rule="evenodd" d="M11.7893 26H10.5959L14.8801 18.4347L19.1642 26H17.9708C17.9708 24.2931 16.587 22.9093 14.8801 22.9093C13.1731 22.9093 11.7893 24.2931 11.7893 26Z" fill="white"/>
</svg>
